<svg width="300" height="200" xmlns="http://www.w3.org/2000/svg"><g class="x-axis" transform="translate(0,100)" fill="none" font-size="10" font-family="sans-serif" text-anchor="middle"><path class="domain" stroke="currentColor" d="M20.5,0.5H290.5"></path><g class="tick" opacity="1" transform="translate(20.5,0)"><line stroke="currentColor" y2="3"></line><text fill="currentColor" y="6" dy="0.71em"></text></g><g class="tick" opacity="1" transform="translate(34.5,0)"><line stroke="currentColor" y2="3"></line><text fill="currentColor" y="6" dy="0.71em"></text></g><g class="tick" opacity="1" transform="translate(47.5,0)"><line stroke="currentColor" y2="3"></line><text fill="currentColor" y="6" dy="0.71em"></text></g><g class="tick" opacity="1" transform="translate(61.5,0)"><line stroke="currentColor" y2="3"></line><text fill="currentColor" y="6" dy="0.71em"></text></g><g class="tick" opacity="1" transform="translate(74.5,0)"><line stroke="currentColor" y2="3"></line><text fill="currentColor" y="6" dy="0.71em"></text></g><g class="tick" opacity="1" transform="translate(88.5,0)"><line stroke="currentColor" y2="3"></line><text fill="currentColor" y="6" dy="0.71em"></text></g><g class="tick" opacity="1" transform="translate(101.5,0)"><line stroke="currentColor" y2="3"></line><text fill="currentColor" y="6" dy="0.71em"></text></g><g class="tick" opacity="1" transform="translate(115.5,0)"><line stroke="currentColor" y2="3"></line><text fill="currentColor" y="6" dy="0.71em"></text></g><g class="tick" opacity="1" transform="translate(128.5,0)"><line stroke="currentColor" y2="3"></line><text fill="currentColor" y="6" dy="0.71em"></text></g><g class="tick" opacity="1" transform="translate(142.5,0)"><line stroke="currentColor" y2="3"></line><text fill="currentColor" y="6" dy="0.71em"></text></g><g class="tick" opacity="1" transform="translate(155.5,0)"><line stroke="currentColor" y2="3"></line><text fill="currentColor" y="6" dy="0.71em"></text></g><g class="tick" opacity="1" transform="translate(169.5,0)"><line stroke="currentColor" y2="3"></line><text fill="currentColor" y="6" dy="0.71em"></text></g><g class="tick" opacity="1" transform="translate(182.5,0)"><line stroke="currentColor" y2="3"></line><text fill="currentColor" y="6" dy="0.71em"></text></g><g class="tick" opacity="1" transform="translate(196.5,0)"><line stroke="currentColor" y2="3"></line><text fill="currentColor" y="6" dy="0.71em"></text></g><g class="tick" opacity="1" transform="translate(209.5,0)"><line stroke="currentColor" y2="3"></line><text fill="currentColor" y="6" dy="0.71em"></text></g><g class="tick" opacity="1" transform="translate(223.5,0)"><line stroke="currentColor" y2="3"></line><text fill="currentColor" y="6" dy="0.71em"></text></g><g class="tick" opacity="1" transform="translate(236.5,0)"><line stroke="currentColor" y2="3"></line><text fill="currentColor" y="6" dy="0.71em"></text></g><g class="tick" opacity="1" transform="translate(250.5,0)"><line stroke="currentColor" y2="3"></line><text fill="currentColor" y="6" dy="0.71em"></text></g><g class="tick" opacity="1" transform="translate(263.5,0)"><line stroke="currentColor" y2="3"></line><text fill="currentColor" y="6" dy="0.71em"></text></g><g class="tick" opacity="1" transform="translate(277.5,0)"><line stroke="currentColor" y2="3"></line><text fill="currentColor" y="6" dy="0.71em"></text></g></g><g class="y-axis" transform="translate(155, 0)" fill="none" font-size="10" font-family="sans-serif" text-anchor="end"><path class="domain" stroke="currentColor" d="M0.5,190.5V10.5"></path><g class="tick" opacity="1" transform="translate(0,190.5)"><line stroke="currentColor" x2="-3"></line><text fill="currentColor" x="-6" dy="0.32em"></text></g><g class="tick" opacity="1" transform="translate(0,181.5)"><line stroke="currentColor" x2="-3"></line><text fill="currentColor" x="-6" dy="0.32em"></text></g><g class="tick" opacity="1" transform="translate(0,172.5)"><line stroke="currentColor" x2="-3"></line><text fill="currentColor" x="-6" dy="0.32em"></text></g><g class="tick" opacity="1" transform="translate(0,163.5)"><line stroke="currentColor" x2="-3"></line><text fill="currentColor" x="-6" dy="0.32em"></text></g><g class="tick" opacity="1" transform="translate(0,154.5)"><line stroke="currentColor" x2="-3"></line><text fill="currentColor" x="-6" dy="0.32em"></text></g><g class="tick" opacity="1" transform="translate(0,145.5)"><line stroke="currentColor" x2="-3"></line><text fill="currentColor" x="-6" dy="0.32em"></text></g><g class="tick" opacity="1" transform="translate(0,136.5)"><line stroke="currentColor" x2="-3"></line><text fill="currentColor" x="-6" dy="0.32em"></text></g><g class="tick" opacity="1" transform="translate(0,127.5)"><line stroke="currentColor" x2="-3"></line><text fill="currentColor" x="-6" dy="0.32em"></text></g><g class="tick" opacity="1" transform="translate(0,118.5)"><line stroke="currentColor" x2="-3"></line><text fill="currentColor" x="-6" dy="0.32em"></text></g><g class="tick" opacity="1" transform="translate(0,109.5)"><line stroke="currentColor" x2="-3"></line><text fill="currentColor" x="-6" dy="0.32em"></text></g><g class="tick" opacity="1" transform="translate(0,100.5)"><line stroke="currentColor" x2="-3"></line><text fill="currentColor" x="-6" dy="0.32em"></text></g><g class="tick" opacity="1" transform="translate(0,91.5)"><line stroke="currentColor" x2="-3"></line><text fill="currentColor" x="-6" dy="0.32em"></text></g><g class="tick" opacity="1" transform="translate(0,82.5)"><line stroke="currentColor" x2="-3"></line><text fill="currentColor" x="-6" dy="0.32em"></text></g><g class="tick" opacity="1" transform="translate(0,73.5)"><line stroke="currentColor" x2="-3"></line><text fill="currentColor" x="-6" dy="0.32em"></text></g><g class="tick" opacity="1" transform="translate(0,64.5)"><line stroke="currentColor" x2="-3"></line><text fill="currentColor" x="-6" dy="0.32em"></text></g><g class="tick" opacity="1" transform="translate(0,55.5)"><line stroke="currentColor" x2="-3"></line><text fill="currentColor" x="-6" dy="0.32em"></text></g><g class="tick" opacity="1" transform="translate(0,46.5)"><line stroke="currentColor" x2="-3"></line><text fill="currentColor" x="-6" dy="0.32em"></text></g><g class="tick" opacity="1" transform="translate(0,37.5)"><line stroke="currentColor" x2="-3"></line><text fill="currentColor" x="-6" dy="0.32em"></text></g><g class="tick" opacity="1" transform="translate(0,28.5)"><line stroke="currentColor" x2="-3"></line><text fill="currentColor" x="-6" dy="0.32em"></text></g><g class="tick" opacity="1" transform="translate(0,19.5)"><line stroke="currentColor" x2="-3"></line><text fill="currentColor" x="-6" dy="0.32em"></text></g></g><path d="M20,190C24.666666666666668,187.05982905982907,29.333333333333332,184.1196581196581,34,181C38.333333333333336,178.1031746031746,42.666666666666664,174.8968253968254,47,172C51.666666666666664,168.8803418803419,56.333333333333336,166.1196581196581,61,163C65.33333333333333,160.1031746031746,69.66666666666667,156.8968253968254,74,154C78.66666666666667,150.8803418803419,83.33333333333333,148.1196581196581,88,145C92.33333333333333,142.1031746031746,96.66666666666667,138.8968253968254,101,136C105.66666666666667,132.8803418803419,110.33333333333333,130.1196581196581,115,127C119.33333333333333,124.10317460317461,123.66666666666667,120.89682539682539,128,118C132.66666666666666,114.88034188034187,137.33333333333334,112.11965811965813,142,109C146.33333333333334,106.10317460317461,150.66666666666666,102.89682539682539,155,100C159.66666666666666,96.88034188034187,164.33333333333334,94.11965811965813,169,91C173.33333333333334,88.10317460317461,177.66666666666666,84.89682539682539,182,82C186.66666666666666,78.88034188034187,191.33333333333334,76.11965811965813,196,73C200.33333333333334,70.10317460317461,204.66666666666666,66.89682539682539,209,64C213.66666666666666,60.88034188034188,218.33333333333334,58.11965811965812,223,55C227.33333333333334,52.1031746031746,231.66666666666666,48.8968253968254,236,46C240.66666666666666,42.88034188034188,245.33333333333334,40.11965811965812,250,37C254.33333333333334,34.1031746031746,258.6666666666667,30.896825396825395,263,28C267.6666666666667,24.88034188034188,272.3333333333333,22.11965811965812,277,19C281.3333333333333,16.103174603174605,285.6666666666667,13.051587301587302,290,10" fill="none" stroke="steelblue" stroke-width="4"></path></svg>