<svg width="300" height="200" xmlns="http://www.w3.org/2000/svg"><g class="x-axis" transform="translate(0,100)" fill="none" font-size="10" font-family="sans-serif" text-anchor="middle"><path class="domain" stroke="currentColor" d="M20.5,0.5H290.5"></path><g class="tick" opacity="1" transform="translate(20.5,0)"><line stroke="currentColor" y2="3"></line><text fill="currentColor" y="6" dy="0.71em"></text></g><g class="tick" opacity="1" transform="translate(34.5,0)"><line stroke="currentColor" y2="3"></line><text fill="currentColor" y="6" dy="0.71em"></text></g><g class="tick" opacity="1" transform="translate(47.5,0)"><line stroke="currentColor" y2="3"></line><text fill="currentColor" y="6" dy="0.71em"></text></g><g class="tick" opacity="1" transform="translate(61.5,0)"><line stroke="currentColor" y2="3"></line><text fill="currentColor" y="6" dy="0.71em"></text></g><g class="tick" opacity="1" transform="translate(74.5,0)"><line stroke="currentColor" y2="3"></line><text fill="currentColor" y="6" dy="0.71em"></text></g><g class="tick" opacity="1" transform="translate(88.5,0)"><line stroke="currentColor" y2="3"></line><text fill="currentColor" y="6" dy="0.71em"></text></g><g class="tick" opacity="1" transform="translate(101.5,0)"><line stroke="currentColor" y2="3"></line><text fill="currentColor" y="6" dy="0.71em"></text></g><g class="tick" opacity="1" transform="translate(115.5,0)"><line stroke="currentColor" y2="3"></line><text fill="currentColor" y="6" dy="0.71em"></text></g><g class="tick" opacity="1" transform="translate(128.5,0)"><line stroke="currentColor" y2="3"></line><text fill="currentColor" y="6" dy="0.71em"></text></g><g class="tick" opacity="1" transform="translate(142.5,0)"><line stroke="currentColor" y2="3"></line><text fill="currentColor" y="6" dy="0.71em"></text></g><g class="tick" opacity="1" transform="translate(155.5,0)"><line stroke="currentColor" y2="3"></line><text fill="currentColor" y="6" dy="0.71em"></text></g><g class="tick" opacity="1" transform="translate(169.5,0)"><line stroke="currentColor" y2="3"></line><text fill="currentColor" y="6" dy="0.71em"></text></g><g class="tick" opacity="1" transform="translate(182.5,0)"><line stroke="currentColor" y2="3"></line><text fill="currentColor" y="6" dy="0.71em"></text></g><g class="tick" opacity="1" transform="translate(196.5,0)"><line stroke="currentColor" y2="3"></line><text fill="currentColor" y="6" dy="0.71em"></text></g><g class="tick" opacity="1" transform="translate(209.5,0)"><line stroke="currentColor" y2="3"></line><text fill="currentColor" y="6" dy="0.71em"></text></g><g class="tick" opacity="1" transform="translate(223.5,0)"><line stroke="currentColor" y2="3"></line><text fill="currentColor" y="6" dy="0.71em"></text></g><g class="tick" opacity="1" transform="translate(236.5,0)"><line stroke="currentColor" y2="3"></line><text fill="currentColor" y="6" dy="0.71em"></text></g><g class="tick" opacity="1" transform="translate(250.5,0)"><line stroke="currentColor" y2="3"></line><text fill="currentColor" y="6" dy="0.71em"></text></g><g class="tick" opacity="1" transform="translate(263.5,0)"><line stroke="currentColor" y2="3"></line><text fill="currentColor" y="6" dy="0.71em"></text></g><g class="tick" opacity="1" transform="translate(277.5,0)"><line stroke="currentColor" y2="3"></line><text fill="currentColor" y="6" dy="0.71em"></text></g></g><g class="y-axis" transform="translate(155, 0)" fill="none" font-size="10" font-family="sans-serif" text-anchor="end"><path class="domain" stroke="currentColor" d="M0.5,190.5V10.5"></path><g class="tick" opacity="1" transform="translate(0,160.5)"><line stroke="currentColor" x2="-3"></line><text fill="currentColor" x="-6" dy="0.32em"></text></g><g class="tick" opacity="1" transform="translate(0,100.5)"><line stroke="currentColor" x2="-3"></line><text fill="currentColor" x="-6" dy="0.32em"></text></g><g class="tick" opacity="1" transform="translate(0,40.5)"><line stroke="currentColor" x2="-3"></line><text fill="currentColor" x="-6" dy="0.32em"></text></g></g><path d="M20,100C24.666666666666668,100,29.333333333333332,100,34,100C38.333333333333336,100,42.666666666666664,100,47,100C51.666666666666664,100,56.333333333333336,100,61,100C65.33333333333333,100,69.66666666666667,100,74,100C78.66666666666667,100,83.33333333333333,100,88,100C92.33333333333333,100,96.66666666666667,99.47089947089947,101,99C105.66666666666667,98.4928774928775,110.33333333333333,98.06552706552706,115,97C119.33333333333333,96.01058201058201,123.66666666666667,95.0326278659612,128,93C132.66666666666666,90.81101614434948,137.33333333333334,88.05033238366572,142,84C146.33333333333334,80.2389770723104,150.66666666666666,74.50617283950618,155,70C159.66666666666666,65.14719848053181,164.33333333333334,59.92212725546059,169,56C173.33333333333334,52.358024691358025,177.66666666666666,49.151675485008816,182,47C186.66666666666666,44.68281101614435,191.33333333333334,44.01424501424501,196,43C200.33333333333334,42.05820105820106,204.66666666666666,41.49470899470899,209,41C213.66666666666666,40.46723646723647,218.33333333333334,40,223,40C227.33333333333334,40,231.66666666666666,40,236,40C240.66666666666666,40,245.33333333333334,40,250,40C254.33333333333334,40,258.6666666666667,40,263,40C267.6666666666667,40,272.3333333333333,40,277,40C281.3333333333333,40,285.6666666666667,40,290,40" fill="none" stroke="steelblue" stroke-width="4"></path></svg>