<svg width="300" height="200" xmlns="http://www.w3.org/2000/svg"><g class="x-axis" transform="translate(0,100)" fill="none" font-size="10" font-family="sans-serif" text-anchor="middle"><path class="domain" stroke="white" d="M20.5,0.5H290.5"></path><g class="tick" opacity="1" transform="translate(20.5,0)"><line stroke="white" y2="3"></line><text fill="white" y="6" dy="0.71em"></text></g><g class="tick" opacity="1" transform="translate(34.5,0)"><line stroke="white" y2="3"></line><text fill="white" y="6" dy="0.71em"></text></g><g class="tick" opacity="1" transform="translate(47.5,0)"><line stroke="white" y2="3"></line><text fill="white" y="6" dy="0.71em"></text></g><g class="tick" opacity="1" transform="translate(61.5,0)"><line stroke="white" y2="3"></line><text fill="white" y="6" dy="0.71em"></text></g><g class="tick" opacity="1" transform="translate(74.5,0)"><line stroke="white" y2="3"></line><text fill="white" y="6" dy="0.71em"></text></g><g class="tick" opacity="1" transform="translate(88.5,0)"><line stroke="white" y2="3"></line><text fill="white" y="6" dy="0.71em"></text></g><g class="tick" opacity="1" transform="translate(101.5,0)"><line stroke="white" y2="3"></line><text fill="white" y="6" dy="0.71em"></text></g><g class="tick" opacity="1" transform="translate(115.5,0)"><line stroke="white" y2="3"></line><text fill="white" y="6" dy="0.71em"></text></g><g class="tick" opacity="1" transform="translate(128.5,0)"><line stroke="white" y2="3"></line><text fill="white" y="6" dy="0.71em"></text></g><g class="tick" opacity="1" transform="translate(142.5,0)"><line stroke="white" y2="3"></line><text fill="white" y="6" dy="0.71em"></text></g><g class="tick" opacity="1" transform="translate(155.5,0)"><line stroke="white" y2="3"></line><text fill="white" y="6" dy="0.71em"></text></g><g class="tick" opacity="1" transform="translate(169.5,0)"><line stroke="white" y2="3"></line><text fill="white" y="6" dy="0.71em"></text></g><g class="tick" opacity="1" transform="translate(182.5,0)"><line stroke="white" y2="3"></line><text fill="white" y="6" dy="0.71em"></text></g><g class="tick" opacity="1" transform="translate(196.5,0)"><line stroke="white" y2="3"></line><text fill="white" y="6" dy="0.71em"></text></g><g class="tick" opacity="1" transform="translate(209.5,0)"><line stroke="white" y2="3"></line><text fill="white" y="6" dy="0.71em"></text></g><g class="tick" opacity="1" transform="translate(223.5,0)"><line stroke="white" y2="3"></line><text fill="white" y="6" dy="0.71em"></text></g><g class="tick" opacity="1" transform="translate(236.5,0)"><line stroke="white" y2="3"></line><text fill="white" y="6" dy="0.71em"></text></g><g class="tick" opacity="1" transform="translate(250.5,0)"><line stroke="white" y2="3"></line><text fill="white" y="6" dy="0.71em"></text></g><g class="tick" opacity="1" transform="translate(263.5,0)"><line stroke="white" y2="3"></line><text fill="white" y="6" dy="0.71em"></text></g><g class="tick" opacity="1" transform="translate(277.5,0)"><line stroke="white" y2="3"></line><text fill="white" y="6" dy="0.71em"></text></g></g><g class="y-axis" transform="translate(155, 0)" fill="none" font-size="10" font-family="sans-serif" text-anchor="end"><path class="domain" stroke="white" d="M0.5,190.5V10.5"></path><g class="tick" opacity="1" transform="translate(0,700.5)"><line stroke="white" x2="-3"></line><text fill="white" x="-6" dy="0.32em"></text></g><g class="tick" opacity="1" transform="translate(0,640.5)"><line stroke="white" x2="-3"></line><text fill="white" x="-6" dy="0.32em"></text></g><g class="tick" opacity="1" transform="translate(0,580.5)"><line stroke="white" x2="-3"></line><text fill="white" x="-6" dy="0.32em"></text></g><g class="tick" opacity="1" transform="translate(0,520.5)"><line stroke="white" x2="-3"></line><text fill="white" x="-6" dy="0.32em"></text></g><g class="tick" opacity="1" transform="translate(0,460.5)"><line stroke="white" x2="-3"></line><text fill="white" x="-6" dy="0.32em"></text></g><g class="tick" opacity="1" transform="translate(0,400.5)"><line stroke="white" x2="-3"></line><text fill="white" x="-6" dy="0.32em"></text></g><g class="tick" opacity="1" transform="translate(0,340.5)"><line stroke="white" x2="-3"></line><text fill="white" x="-6" dy="0.32em"></text></g><g class="tick" opacity="1" transform="translate(0,280.5)"><line stroke="white" x2="-3"></line><text fill="white" x="-6" dy="0.32em"></text></g><g class="tick" opacity="1" transform="translate(0,220.5)"><line stroke="white" x2="-3"></line><text fill="white" x="-6" dy="0.32em"></text></g><g class="tick" opacity="1" transform="translate(0,160.5)"><line stroke="white" x2="-3"></line><text fill="white" x="-6" dy="0.32em"></text></g><g class="tick" opacity="1" transform="translate(0,100.5)"><line stroke="white" x2="-3"></line><text fill="white" x="-6" dy="0.32em"></text></g><g class="tick" opacity="1" transform="translate(0,40.5)"><line stroke="white" x2="-3"></line><text fill="white" x="-6" dy="0.32em"></text></g><g class="tick" opacity="1" transform="translate(0,-19.5)"><line stroke="white" x2="-3"></line><text fill="white" x="-6" dy="0.32em"></text></g><g class="tick" opacity="1" transform="translate(0,-79.5)"><line stroke="white" x2="-3"></line><text fill="white" x="-6" dy="0.32em"></text></g><g class="tick" opacity="1" transform="translate(0,-139.5)"><line stroke="white" x2="-3"></line><text fill="white" x="-6" dy="0.32em"></text></g><g class="tick" opacity="1" transform="translate(0,-199.5)"><line stroke="white" x2="-3"></line><text fill="white" x="-6" dy="0.32em"></text></g><g class="tick" opacity="1" transform="translate(0,-259.5)"><line stroke="white" x2="-3"></line><text fill="white" x="-6" dy="0.32em"></text></g><g class="tick" opacity="1" transform="translate(0,-319.5)"><line stroke="white" x2="-3"></line><text fill="white" x="-6" dy="0.32em"></text></g><g class="tick" opacity="1" transform="translate(0,-379.5)"><line stroke="white" x2="-3"></line><text fill="white" x="-6" dy="0.32em"></text></g><g class="tick" opacity="1" transform="translate(0,-439.5)"><line stroke="white" x2="-3"></line><text fill="white" x="-6" dy="0.32em"></text></g></g><path d="M20,40C24.666666666666668,40,29.333333333333332,40,34,40C38.333333333333336,40,42.666666666666664,40,47,40C51.666666666666664,40,56.333333333333336,40,61,40C65.33333333333333,40,69.66666666666667,40,74,40C78.66666666666667,40,83.33333333333333,40,88,40C92.33333333333333,40,96.66666666666667,40,101,40C105.66666666666667,40,110.33333333333333,40,115,40C119.33333333333333,40,123.66666666666667,40,128,40C132.66666666666666,40,137.33333333333334,40,142,40C146.33333333333334,40,150.66666666666666,40,155,40C159.66666666666666,40,164.33333333333334,40,169,40C173.33333333333334,40,177.66666666666666,40,182,40C186.66666666666666,40,191.33333333333334,40,196,40C200.33333333333334,40,204.66666666666666,40,209,40C213.66666666666666,40,218.33333333333334,40,223,40C227.33333333333334,40,231.66666666666666,40,236,40C240.66666666666666,40,245.33333333333334,40,250,40C254.33333333333334,40,258.6666666666667,40,263,40C267.6666666666667,40,272.3333333333333,40,277,40C281.3333333333333,40,285.6666666666667,40,290,40" fill="none" stroke="steelblue" stroke-width="4.5"></path></svg>