<svg width="300" height="200" xmlns="http://www.w3.org/2000/svg"><g class="x-axis" transform="translate(0,100)" fill="none" font-size="10" font-family="sans-serif" text-anchor="middle"><path class="domain" stroke="currentColor" d="M20.5,0.5H290.5"></path><g class="tick" opacity="1" transform="translate(20.5,0)"><line stroke="currentColor" y2="3"></line><text fill="currentColor" y="6" dy="0.71em"></text></g><g class="tick" opacity="1" transform="translate(34.5,0)"><line stroke="currentColor" y2="3"></line><text fill="currentColor" y="6" dy="0.71em"></text></g><g class="tick" opacity="1" transform="translate(47.5,0)"><line stroke="currentColor" y2="3"></line><text fill="currentColor" y="6" dy="0.71em"></text></g><g class="tick" opacity="1" transform="translate(61.5,0)"><line stroke="currentColor" y2="3"></line><text fill="currentColor" y="6" dy="0.71em"></text></g><g class="tick" opacity="1" transform="translate(74.5,0)"><line stroke="currentColor" y2="3"></line><text fill="currentColor" y="6" dy="0.71em"></text></g><g class="tick" opacity="1" transform="translate(88.5,0)"><line stroke="currentColor" y2="3"></line><text fill="currentColor" y="6" dy="0.71em"></text></g><g class="tick" opacity="1" transform="translate(101.5,0)"><line stroke="currentColor" y2="3"></line><text fill="currentColor" y="6" dy="0.71em"></text></g><g class="tick" opacity="1" transform="translate(115.5,0)"><line stroke="currentColor" y2="3"></line><text fill="currentColor" y="6" dy="0.71em"></text></g><g class="tick" opacity="1" transform="translate(128.5,0)"><line stroke="currentColor" y2="3"></line><text fill="currentColor" y="6" dy="0.71em"></text></g><g class="tick" opacity="1" transform="translate(142.5,0)"><line stroke="currentColor" y2="3"></line><text fill="currentColor" y="6" dy="0.71em"></text></g><g class="tick" opacity="1" transform="translate(155.5,0)"><line stroke="currentColor" y2="3"></line><text fill="currentColor" y="6" dy="0.71em"></text></g><g class="tick" opacity="1" transform="translate(169.5,0)"><line stroke="currentColor" y2="3"></line><text fill="currentColor" y="6" dy="0.71em"></text></g><g class="tick" opacity="1" transform="translate(182.5,0)"><line stroke="currentColor" y2="3"></line><text fill="currentColor" y="6" dy="0.71em"></text></g><g class="tick" opacity="1" transform="translate(196.5,0)"><line stroke="currentColor" y2="3"></line><text fill="currentColor" y="6" dy="0.71em"></text></g><g class="tick" opacity="1" transform="translate(209.5,0)"><line stroke="currentColor" y2="3"></line><text fill="currentColor" y="6" dy="0.71em"></text></g><g class="tick" opacity="1" transform="translate(223.5,0)"><line stroke="currentColor" y2="3"></line><text fill="currentColor" y="6" dy="0.71em"></text></g><g class="tick" opacity="1" transform="translate(236.5,0)"><line stroke="currentColor" y2="3"></line><text fill="currentColor" y="6" dy="0.71em"></text></g><g class="tick" opacity="1" transform="translate(250.5,0)"><line stroke="currentColor" y2="3"></line><text fill="currentColor" y="6" dy="0.71em"></text></g><g class="tick" opacity="1" transform="translate(263.5,0)"><line stroke="currentColor" y2="3"></line><text fill="currentColor" y="6" dy="0.71em"></text></g><g class="tick" opacity="1" transform="translate(277.5,0)"><line stroke="currentColor" y2="3"></line><text fill="currentColor" y="6" dy="0.71em"></text></g></g><g class="y-axis" transform="translate(155, 0)" fill="none" font-size="10" font-family="sans-serif" text-anchor="end"><path class="domain" stroke="currentColor" d="M0.5,190.5V10.5"></path><g class="tick" opacity="1" transform="translate(0,190.5)"><line stroke="currentColor" x2="-3"></line><text fill="currentColor" x="-6" dy="0.32em"></text></g><g class="tick" opacity="1" transform="translate(0,181.5)"><line stroke="currentColor" x2="-3"></line><text fill="currentColor" x="-6" dy="0.32em"></text></g><g class="tick" opacity="1" transform="translate(0,172.5)"><line stroke="currentColor" x2="-3"></line><text fill="currentColor" x="-6" dy="0.32em"></text></g><g class="tick" opacity="1" transform="translate(0,163.5)"><line stroke="currentColor" x2="-3"></line><text fill="currentColor" x="-6" dy="0.32em"></text></g><g class="tick" opacity="1" transform="translate(0,154.5)"><line stroke="currentColor" x2="-3"></line><text fill="currentColor" x="-6" dy="0.32em"></text></g><g class="tick" opacity="1" transform="translate(0,145.5)"><line stroke="currentColor" x2="-3"></line><text fill="currentColor" x="-6" dy="0.32em"></text></g><g class="tick" opacity="1" transform="translate(0,136.5)"><line stroke="currentColor" x2="-3"></line><text fill="currentColor" x="-6" dy="0.32em"></text></g><g class="tick" opacity="1" transform="translate(0,127.5)"><line stroke="currentColor" x2="-3"></line><text fill="currentColor" x="-6" dy="0.32em"></text></g><g class="tick" opacity="1" transform="translate(0,118.5)"><line stroke="currentColor" x2="-3"></line><text fill="currentColor" x="-6" dy="0.32em"></text></g><g class="tick" opacity="1" transform="translate(0,109.5)"><line stroke="currentColor" x2="-3"></line><text fill="currentColor" x="-6" dy="0.32em"></text></g><g class="tick" opacity="1" transform="translate(0,100.5)"><line stroke="currentColor" x2="-3"></line><text fill="currentColor" x="-6" dy="0.32em"></text></g><g class="tick" opacity="1" transform="translate(0,91.5)"><line stroke="currentColor" x2="-3"></line><text fill="currentColor" x="-6" dy="0.32em"></text></g><g class="tick" opacity="1" transform="translate(0,82.5)"><line stroke="currentColor" x2="-3"></line><text fill="currentColor" x="-6" dy="0.32em"></text></g><g class="tick" opacity="1" transform="translate(0,73.5)"><line stroke="currentColor" x2="-3"></line><text fill="currentColor" x="-6" dy="0.32em"></text></g><g class="tick" opacity="1" transform="translate(0,64.5)"><line stroke="currentColor" x2="-3"></line><text fill="currentColor" x="-6" dy="0.32em"></text></g><g class="tick" opacity="1" transform="translate(0,55.5)"><line stroke="currentColor" x2="-3"></line><text fill="currentColor" x="-6" dy="0.32em"></text></g><g class="tick" opacity="1" transform="translate(0,46.5)"><line stroke="currentColor" x2="-3"></line><text fill="currentColor" x="-6" dy="0.32em"></text></g><g class="tick" opacity="1" transform="translate(0,37.5)"><line stroke="currentColor" x2="-3"></line><text fill="currentColor" x="-6" dy="0.32em"></text></g><g class="tick" opacity="1" transform="translate(0,28.5)"><line stroke="currentColor" x2="-3"></line><text fill="currentColor" x="-6" dy="0.32em"></text></g><g class="tick" opacity="1" transform="translate(0,19.5)"><line stroke="currentColor" x2="-3"></line><text fill="currentColor" x="-6" dy="0.32em"></text></g></g><path d="M20,100C24.666666666666668,100,29.333333333333332,100,34,100C38.333333333333336,100,42.666666666666664,100,47,100C51.666666666666664,100,56.333333333333336,100,61,100C65.33333333333333,100,69.66666666666667,100,74,100C78.66666666666667,100,83.33333333333333,100,88,100C92.33333333333333,100,96.66666666666667,100,101,100C105.66666666666667,100,110.33333333333333,100,115,100C119.33333333333333,100,123.66666666666667,99.47089947089947,128,99C132.66666666666666,98.4928774928775,137.33333333333334,97.87939221272555,142,97C146.33333333333334,96.18342151675485,150.66666666666666,95.41269841269842,155,94C159.66666666666666,92.47863247863248,164.33333333333334,90.2659069325736,169,88C173.33333333333334,85.89594356261023,177.66666666666666,83.4021164021164,182,81C186.66666666666666,78.41310541310541,191.33333333333334,75.95916429249763,196,73C200.33333333333334,70.25220458553792,204.66666666666666,66.89682539682539,209,64C213.66666666666666,60.88034188034188,218.33333333333334,58.11965811965812,223,55C227.33333333333334,52.1031746031746,231.66666666666666,48.8968253968254,236,46C240.66666666666666,42.88034188034188,245.33333333333334,40.11965811965812,250,37C254.33333333333334,34.1031746031746,258.6666666666667,30.896825396825395,263,28C267.6666666666667,24.88034188034188,272.3333333333333,22.11965811965812,277,19C281.3333333333333,16.103174603174605,285.6666666666667,13.051587301587302,290,10" fill="none" stroke="steelblue" stroke-width="4"></path></svg>