<svg width="300" height="200" xmlns="http://www.w3.org/2000/svg"><g class="x-axis" transform="translate(0,100)" fill="none" font-size="10" font-family="sans-serif" text-anchor="middle"><path class="domain" stroke="currentColor" d="M20.5,0.5H290.5"></path><g class="tick" opacity="1" transform="translate(20.5,0)"><line stroke="currentColor" y2="3"></line><text fill="currentColor" y="6" dy="0.71em"></text></g><g class="tick" opacity="1" transform="translate(34.5,0)"><line stroke="currentColor" y2="3"></line><text fill="currentColor" y="6" dy="0.71em"></text></g><g class="tick" opacity="1" transform="translate(47.5,0)"><line stroke="currentColor" y2="3"></line><text fill="currentColor" y="6" dy="0.71em"></text></g><g class="tick" opacity="1" transform="translate(61.5,0)"><line stroke="currentColor" y2="3"></line><text fill="currentColor" y="6" dy="0.71em"></text></g><g class="tick" opacity="1" transform="translate(74.5,0)"><line stroke="currentColor" y2="3"></line><text fill="currentColor" y="6" dy="0.71em"></text></g><g class="tick" opacity="1" transform="translate(88.5,0)"><line stroke="currentColor" y2="3"></line><text fill="currentColor" y="6" dy="0.71em"></text></g><g class="tick" opacity="1" transform="translate(101.5,0)"><line stroke="currentColor" y2="3"></line><text fill="currentColor" y="6" dy="0.71em"></text></g><g class="tick" opacity="1" transform="translate(115.5,0)"><line stroke="currentColor" y2="3"></line><text fill="currentColor" y="6" dy="0.71em"></text></g><g class="tick" opacity="1" transform="translate(128.5,0)"><line stroke="currentColor" y2="3"></line><text fill="currentColor" y="6" dy="0.71em"></text></g><g class="tick" opacity="1" transform="translate(142.5,0)"><line stroke="currentColor" y2="3"></line><text fill="currentColor" y="6" dy="0.71em"></text></g><g class="tick" opacity="1" transform="translate(155.5,0)"><line stroke="currentColor" y2="3"></line><text fill="currentColor" y="6" dy="0.71em"></text></g><g class="tick" opacity="1" transform="translate(169.5,0)"><line stroke="currentColor" y2="3"></line><text fill="currentColor" y="6" dy="0.71em"></text></g><g class="tick" opacity="1" transform="translate(182.5,0)"><line stroke="currentColor" y2="3"></line><text fill="currentColor" y="6" dy="0.71em"></text></g><g class="tick" opacity="1" transform="translate(196.5,0)"><line stroke="currentColor" y2="3"></line><text fill="currentColor" y="6" dy="0.71em"></text></g><g class="tick" opacity="1" transform="translate(209.5,0)"><line stroke="currentColor" y2="3"></line><text fill="currentColor" y="6" dy="0.71em"></text></g><g class="tick" opacity="1" transform="translate(223.5,0)"><line stroke="currentColor" y2="3"></line><text fill="currentColor" y="6" dy="0.71em"></text></g><g class="tick" opacity="1" transform="translate(236.5,0)"><line stroke="currentColor" y2="3"></line><text fill="currentColor" y="6" dy="0.71em"></text></g><g class="tick" opacity="1" transform="translate(250.5,0)"><line stroke="currentColor" y2="3"></line><text fill="currentColor" y="6" dy="0.71em"></text></g><g class="tick" opacity="1" transform="translate(263.5,0)"><line stroke="currentColor" y2="3"></line><text fill="currentColor" y="6" dy="0.71em"></text></g><g class="tick" opacity="1" transform="translate(277.5,0)"><line stroke="currentColor" y2="3"></line><text fill="currentColor" y="6" dy="0.71em"></text></g></g><g class="y-axis" transform="translate(155, 0)" fill="none" font-size="10" font-family="sans-serif" text-anchor="end"><path class="domain" stroke="currentColor" d="M0.5,190.5V10.5"></path><g class="tick" opacity="1" transform="translate(0,160.5)"><line stroke="currentColor" x2="-3"></line><text fill="currentColor" x="-6" dy="0.32em"></text></g><g class="tick" opacity="1" transform="translate(0,100.5)"><line stroke="currentColor" x2="-3"></line><text fill="currentColor" x="-6" dy="0.32em"></text></g><g class="tick" opacity="1" transform="translate(0,40.5)"><line stroke="currentColor" x2="-3"></line><text fill="currentColor" x="-6" dy="0.32em"></text></g></g><path d="M20,160C24.666666666666668,160,29.333333333333332,160,34,160C38.333333333333336,160,42.666666666666664,160,47,160C51.666666666666664,160,56.333333333333336,160,61,160C65.33333333333333,160,69.66666666666667,160,74,160C78.66666666666667,160,83.33333333333333,160,88,160C92.33333333333333,160,96.66666666666667,160,101,160C105.66666666666667,160,110.33333333333333,160,115,160C119.33333333333333,160,123.66666666666667,159.33333333333334,128,158C132.66666666666666,156.56410256410257,137.33333333333334,154,142,146C146.33333333333334,138.57142857142858,150.66666666666666,114.80599647266314,155,100C159.66666666666666,84.05508072174739,164.33333333333334,62.61538461538461,169,54C173.33333333333334,46,177.66666666666666,43.23809523809524,182,42C186.66666666666666,40.666666666666664,191.33333333333334,40,196,40C200.33333333333334,40,204.66666666666666,40,209,40C213.66666666666666,40,218.33333333333334,40,223,40C227.33333333333334,40,231.66666666666666,40,236,40C240.66666666666666,40,245.33333333333334,40,250,40C254.33333333333334,40,258.6666666666667,40,263,40C267.6666666666667,40,272.3333333333333,40,277,40C281.3333333333333,40,285.6666666666667,40,290,40" fill="none" stroke="steelblue" stroke-width="4"></path></svg>